<svg xmlns="http://www.w3.org/2000/svg" viewBox="0 0 448 512" aria-hidden="true">
  <path fill="currentColor" d="M224,202.66A53.34,53.34,0,1,0,277.34,256,53.38,53.38,0,0,0,224,202.66Zm124.71-41a54,54,0,0,0-30.59-30.59C297.2,120,224,120,224,120s-73.2,0-94.12,11.07a54,54,0,0,0-30.59,30.59C88.23,161.54,88,192,88,192s-.23,30.46,11.29,51.34a54,54,0,0,0,30.59,30.59C151.8,285,224,285,224,285s73.2,0,94.12-11.07a54,54,0,0,0,30.59-30.59C359.77,222.46,360,192,360,192S359.77,161.54,348.71,161.66ZM224,269.33A77.33,77.33,0,1,1,301.33,192,77.41,77.41,0,0,1,224,269.33Zm98.67-140a18,18,0,1,1,18-18A18,18,0,0,1,322.67,129.33Z"/>
  <path fill="currentColor" d="M400,32H48A48,48,0,0,0,0,80V432a48,48,0,0,0,48,48H400a48,48,0,0,0,48-48V80A48,48,0,0,0,400,32ZM360,192s-.23,61.14-11.29,82.12a86.11,86.11,0,0,1-48.59,48.59C279.2,334.8,224,334.67,224,334.67S168.8,334.8,148,322.71a86.11,86.11,0,0,1-48.59-48.59C88.23,253.14,88,192,88,192s-.23-61.14,11.29-82.12a86.11,86.11,0,0,1,48.59-48.59C168.8,49.2,224,49.33,224,49.33s55.2-.13,76,11.94a86.11,86.11,0,0,1,48.59,48.59C359.77,130.86,360,192,360,192Z"/>
</svg>